# xmcd
#
# Track frame offsets: 
#        150
#        12350
#        24157
#        38199
#        58154
#        73137
#        88940
#        105728
#        123822
#        138442
#        150190
#        165473
#
# Disc length: 2346 seconds
#
# Revision: 0
# Processed by: cddbd v1.5.2PL0 Copyright (c) Steve Scherf et al.
# Submitted via: ExactAudioCopy v0.99pb4
#
DISCID=9309280c
DTITLE=Various Artist - Bose Private Performances Collection: Everything is B
DTITLE=eautiful
DYEAR=1900
DGENRE=Country
TTITLE0=Statler Brothers - Oh, Happy Day
TTITLE1=Hoyt Axton - Rusty Old Halo
TTITLE2=Don King - Lean On Jesus
TTITLE3=Willie Nelson - Angel Flying Too Close to the Ground
TTITLE4=Donna Fargo - You Can't Be a Beacon
TTITLE5=Ray Stevens - Everything Is Beautiful
TTITLE6=Johnny Cash - (Ghost) Riders In the Sky
TTITLE7=Willie Nelson - Help Me Make It Through the Night
TTITLE8=B.J. Thomas - Mighty Clouds of Joy
TTITLE9=Charlie Rich - Pretty People
TTITLE10=Larry Gatlin - She Used to Sing On Sunday
TTITLE11=Oak Ridge Boys - Rhythm Guitar
EXTD=
EXTT0=
EXTT1=
EXTT2=
EXTT3=
EXTT4=
EXTT5=
EXTT6=
EXTT7=
EXTT8=
EXTT9=
EXTT10=
EXTT11=
PLAYORDER=
